<svg width="484" height="485.99999999999994" xmlns="http://www.w3.org/2000/svg" style="vector-effect: non-scaling-stroke;" stroke="null">

 <g stroke="null">
  <title stroke="null">background</title>
  <rect stroke="null" fill="none" id="canvas_background" height="402" width="582" y="-1" x="-1"/>
 </g>
 <g stroke="null">
  <title stroke="null">Layer 1</title>
  <path stroke="null" id="svg_2" fill="#bd323b" d="m-12.4828,-21.144268l0,521.309858l372.111008,0l103.844932,0l29.206387,0c3.675678,0 9.251934,1.012336 12.63663,-0.652178c2.611267,-1.284888 2.4555,-4.422481 2.502014,-6.919794c0.129806,-6.844085 0.005409,-13.703311 0.005409,-20.548477l0,-85.442902l0,-306.08027l0,-75.708901l-0.001082,-17.304892c-0.016226,-2.38934 0.391582,-5.858485 -1.732912,-7.540855c-2.457663,-1.946324 -7.251838,-1.111396 -10.164904,-1.111591l-24.879515,0l-99.51806,0l-384.009906,0z"/>
  <path stroke="null" id="svg_3" fill="#fdfbfb" d="m29,28l0,428l78,0l0,-267l0,-63c0,-4.235 -0.37768,-18.13768 4.74074,-18.534c5.11841,-0.39632 4.25926,15.124 4.25926,19.534l0,62l0,267l78,0l0,-267l0,-63c0,-4.235 0.08513,-18.63425 4.961,-18.534c4.87587,0.10025 4.039,15.124 4.039,19.534l0,62l0,267l78,0l0,-428l-252,0m347,0l0,87l-64,0c-4.997,0 -10.003,-0.09 -14.999,0.005c-1.982,0.037 -4.595,-0.141 -5.973,1.598c-1.496,1.889 -1.023,5.161 -1.028,7.397l0,16l0,65l0,251l165,0l0,-428l-79,0z"/>
  <path stroke="null" id="svg_4" fill="#bd323b" d="m368.30303,195l0,139l0,33c8.54288,-0.05999 0.66467,-0.28967 9,0l0,-32l0,-140l-9,0z"/>
 </g>
</svg>